<?xml version="1.0" standalone="no"?><!DOCTYPE svg PUBLIC "-//W3C//DTD SVG 1.1//EN" "http://www.w3.org/Graphics/SVG/1.1/DTD/svg11.dtd"><svg t="1515812677544" class="icon" style="" viewBox="0 0 1024 1024" version="1.1" xmlns="http://www.w3.org/2000/svg" p-id="1658" xmlns:xlink="http://www.w3.org/1999/xlink" width="200" height="200"><defs><style type="text/css"></style></defs><path d="M155.56 805.72a52 52 0 0 1-52-52V270.87a52 52 0 0 1 52-52h540.36a40 40 0 0 0 0-80H155.56c-72.77 0-132 59.2-132 132v482.87c0 72.77 59.2 132 132 132a40 40 0 1 0 0-80z m400.92-263.41a30 30 0 0 0 30-30v-87.4a30 30 0 0 0-30-30H439.95a30 30 0 0 0 0 60h86.53v27.4h-86.53a30 30 0 0 0-30 30v87.4a30 30 0 0 0 30 30h116.53a30 30 0 0 0 0-60h-86.53v-27.4z m157.81 27.4a30 30 0 0 0 0 60h116.53a30 30 0 0 0 30-30v-174.8a30 30 0 0 0-30-30H714.28a30 30 0 0 0 0 60h86.53v27.4h-86.53a30 30 0 0 0 0 60h86.53v27.4z m154.09-430.82a40 40 0 0 0 0 80 52 52 0 0 1 52 52v482.85a52 52 0 0 1-52 52H328a40 40 0 1 0 0 80h540.38c72.77 0 132-59.2 132-132V270.87c-0.03-72.77-59.23-131.98-132-131.98z m-597.16 261a30 30 0 0 0-28.22-2.63l-61.5 25.9a30 30 0 0 0 23.28 55.3l19.86-8.36v129.61a30 30 0 0 0 60 0v-174.8a30 30 0 0 0-13.42-25z" p-id="1659"></path></svg>