<?xml version="1.0" standalone="no"?><!DOCTYPE svg PUBLIC "-//W3C//DTD SVG 1.1//EN" "http://www.w3.org/Graphics/SVG/1.1/DTD/svg11.dtd"><svg t="1518101964658" class="icon" style="" viewBox="0 0 1024 1024" version="1.1" xmlns="http://www.w3.org/2000/svg" p-id="1561" xmlns:xlink="http://www.w3.org/1999/xlink" width="200" height="200"><defs><style type="text/css"></style></defs><path d="M380.3 210.9c-1.1-23.5-7.8-45.5-18.6-65-26.9-48.8-79.1-82-139.3-82C135 64 64 134.1 64 220.1c0 55.1 29.3 103.7 73.2 131.3 19 12.1 40.5 20.2 63.8 23.1 12.5-24.9 28.2-48.2 46.8-69.2-8.1 2.5-16.8 3.6-25.5 3.6-18.8 0-36.3-5.6-50.8-15.2-24.2-15.7-40.3-42.8-40.3-73.5 0-49.1 40.8-88.9 91.2-88.9 33.4 0 62.7 17.7 78.4 43.9 8.1 13.2 12.8 28.4 12.8 45 0 10.8-2 21.1-5.6 30.7 22.1-16.2 46.3-29.7 72.3-40zM801.6 64c-60.3 0-112.7 33.2-139.6 82-10.8 19.5-17.2 41.4-18.6 64.7 25.8 10.5 50.2 23.7 72.4 39.9-3.6-9.6-5.6-19.7-5.6-30.5 0-16.6 4.7-31.8 12.8-45 15.7-26.2 45-43.9 78.6-43.9 50.2 0 91.2 39.9 91.2 88.9 0 30.7-16.1 57.8-40.5 73.5-14.3 9.6-31.8 15.2-50.6 15.2-9 0-17.5-1.1-25.8-3.6 18.6 21.1 34.3 44.4 46.8 69.2 23.3-2.9 45-11 63.8-23.1C930.6 323.7 960 275.4 960 220c0-85.9-71.2-156-158.4-156z" fill="#A6CBDD" p-id="1562"></path><path d="M886.5 351.4c-9.9-20.2-21.3-39.6-34.3-57.8-33.8-48.2-78-88.5-129.2-118.5-19.3-11.4-39.6-21.3-60.9-29.1-46.6-17.9-97.2-27.8-150.1-27.8-53.1 0-103.7 9.9-150.3 27.8-21.3 8.1-41.7 17.9-60.9 29.1-51.3 30-95.4 70.6-129.2 118.5-13 18.1-24.4 37.6-34.3 57.8C111.9 404 97.8 462.9 97.8 525c0 224.2 185.9 406.8 414.2 406.8S926 749.2 926 525c0-62.1-14.2-121-39.5-173.6zM512 864.6c-191.3 0-347-152.3-347-339.6 0-54 13-105.1 36.1-150.5 12.5-24.9 28.2-48.2 46.8-69.2 17.7-20.6 37.9-38.8 60-54.4 22.2-16.1 46.4-29.6 72.4-39.9 40.5-16.6 85.1-25.5 131.7-25.5 46.4 0 90.9 9 131.5 25.3 25.8 10.5 50.2 23.7 72.4 39.9 22.2 15.7 42.3 34 60 54.7 18.6 21.1 34.3 44.4 46.8 69.2 23.1 45.5 36.1 96.5 36.1 150.5 0 187.2-155.7 339.5-346.8 339.5z" fill="#A6CBDD" p-id="1563"></path><path d="M854 960c-11.5 0-22.7-5.9-29-16.6l-76.9-130.6c-9.4-16-4.1-36.6 11.9-46 16-9.4 36.6-4.1 46 11.9l76.9 130.6c9.4 16 4.1 36.6-11.9 46-5.4 3.2-11.2 4.7-17 4.7zM172.8 960c-5.8 0-11.7-1.5-17-4.6-16-9.4-21.3-30-11.9-46l76.8-130.6c9.4-16 30-21.3 46-11.9s21.3 30 11.9 46l-76.8 130.6c-6.3 10.6-17.5 16.5-29 16.5zM317.9 870.3V746.6c0-9.3 7.5-16.8 16.8-16.8s16.8 7.5 16.8 16.8v123.6c0 9.3-7.5 16.8-16.8 16.8-9.3 0.1-16.8-7.5-16.8-16.7zM495.1 870.3v-146c0-9.3 7.5-16.8 16.8-16.8s16.8 7.5 16.8 16.8v146c0 9.3-7.5 16.8-16.8 16.8-9.2 0-16.8-7.6-16.8-16.8zM672.4 870.3v-146c0-9.3 7.5-16.8 16.8-16.8S706 715 706 724.3v146c0 9.3-7.5 16.8-16.8 16.8s-16.8-7.6-16.8-16.8zM406.5 870.3v-78.8c0-9.3 7.5-16.8 16.8-16.8s16.8 7.5 16.8 16.8v78.8c0 9.3-7.5 16.8-16.8 16.8s-16.8-7.6-16.8-16.8zM583.8 870.3v-53.4c0-9.3 7.5-16.8 16.8-16.8s16.8 7.5 16.8 16.8v53.4c0 9.3-7.5 16.8-16.8 16.8s-16.8-7.6-16.8-16.8z" fill="#A6CBDD" p-id="1564"></path><path d="M229.3 780.6v-126c0-9.3 7.5-16.8 16.8-16.8s16.8 7.5 16.8 16.8v126c0 9.3-7.5 16.8-16.8 16.8s-16.8-7.5-16.8-16.8zM761 780.6V647.1c0-9.3 7.5-16.8 16.8-16.8s16.8 7.5 16.8 16.8v133.5c0 9.3-7.5 16.8-16.8 16.8s-16.8-7.5-16.8-16.8z" fill="#A6CBDD" p-id="1565"></path><path d="M598.9 645.5c-8.6 0-17.2-3.3-23.8-9.8l-86.9-86.9c-6.3-6.3-9.8-14.8-9.8-23.8V382.8c0-18.6 15-33.6 33.6-33.6s33.6 15 33.6 33.6V511l77.1 77.1c13.1 13.1 13.1 34.4 0 47.5-6.6 6.6-15.2 9.9-23.8 9.9z" fill="#60A9D1" p-id="1566"></path></svg>