<?xml version="1.0" standalone="no"?><!DOCTYPE svg PUBLIC "-//W3C//DTD SVG 1.1//EN" "http://www.w3.org/Graphics/SVG/1.1/DTD/svg11.dtd"><svg t="1513072819822" class="icon" style="" viewBox="0 0 1448 1024" version="1.1" xmlns="http://www.w3.org/2000/svg" p-id="2905" xmlns:xlink="http://www.w3.org/1999/xlink" width="282.8125" height="200"><defs><style type="text/css"></style></defs><path d="M1155.221933 82.562666H425.761269v-1.623867c-72.033329 0-130.637065 58.603736-130.637065 130.638785v600.447466c0 72.035049 58.603736 130.638785 130.637065 130.638786h705.119849v-48.68507c-45.186185 0-81.950276-36.764091-81.950275-81.953716 0-45.187905 36.764091-81.951996 81.950275-81.951995v-0.001721h24.342535V82.562666zM469.063836 131.247736h331.637145v361.350141l91.960113-129.835453 86.551807 129.835453V131.247736h127.325683v550.138529H469.063836V131.247736z m-48.68507-1.427766v551.702191c-28.925144 1.180056-55.445451 11.802285-76.571213 28.870098V211.577584c0-43.378256 33.884478-78.974331 76.571213-81.757614z m608.838597 600.253085c-18.111974 22.426233-28.97159 50.947131-28.97159 81.951995 0 31.008305 10.856175 59.525763 28.97159 81.953716H425.761269c-45.187905 0-81.951996-36.765811-81.951996-81.953716 0-45.187905 36.764091-81.953716 81.951996-81.953716v0.001721h603.456094z" fill="" p-id="2906"></path></svg>