<?xml version="1.0" standalone="no"?><!DOCTYPE svg PUBLIC "-//W3C//DTD SVG 1.1//EN" "http://www.w3.org/Graphics/SVG/1.1/DTD/svg11.dtd"><svg t="1513072836670" class="icon" style="" viewBox="0 0 1024 1024" version="1.1" xmlns="http://www.w3.org/2000/svg" p-id="3572" xmlns:xlink="http://www.w3.org/1999/xlink" width="200" height="200"><defs><style type="text/css"></style></defs><path d="M778.992 149.647c12.258 0 23.84 4.83 32.611 13.602s13.604 20.353 13.604 32.612v632.276c0 12.258-4.83 23.84-13.604 32.612-8.771 8.771-20.353 13.602-32.611 13.602H245.01c-12.258 0-23.84-4.831-32.611-13.602s-13.602-20.353-13.602-32.612V195.861c0-12.258 4.83-23.841 13.602-32.612 8.771-8.771 20.353-13.602 32.611-13.602h533.982m0-31.836H245.01c-42.926 0-78.051 35.122-78.051 78.051v632.276c0 42.926 35.122 78.051 78.051 78.051h533.982c42.926 0 78.051-35.122 78.051-78.051V195.862c0-42.927-35.123-78.051-78.051-78.051z" p-id="3573"></path><path d="M296.858 305.915c0 18.705 15.163 33.868 33.868 33.868 18.705 0 33.868-15.163 33.868-33.868 0-18.705-15.163-33.868-33.868-33.868-18.705 0-33.868 15.163-33.868 33.868zM296.858 512c0 18.705 15.163 33.868 33.868 33.868 18.705 0 33.868-15.163 33.868-33.868 0-18.705-15.163-33.868-33.868-33.868-18.705 0-33.868 15.163-33.868 33.868zM296.858 718.085c0 18.705 15.163 33.868 33.868 33.868 18.705 0 33.868-15.163 33.868-33.868 0-18.705-15.163-33.868-33.868-33.868-18.705 0-33.868 15.163-33.868 33.868zM727.142 320.591H422.439c-8.792 0-15.917-7.127-15.917-15.917 0-8.792 7.127-15.917 15.917-15.917h304.703c8.792 0 15.917 7.127 15.917 15.917 0 8.792-7.126 15.917-15.917 15.917zM727.142 525.438H422.439c-8.792 0-15.917-7.127-15.917-15.917 0-8.792 7.127-15.917 15.917-15.917h304.703c8.792 0 15.917 7.127 15.917 15.917 0 8.791-7.126 15.917-15.917 15.917zM727.142 735.486H422.439c-8.792 0-15.917-7.127-15.917-15.917 0-8.792 7.127-15.917 15.917-15.917h304.703c8.792 0 15.917 7.127 15.917 15.917 0 8.791-7.126 15.917-15.917 15.917z" p-id="3574"></path></svg>