<?xml version="1.0" standalone="no"?><!DOCTYPE svg PUBLIC "-//W3C//DTD SVG 1.1//EN" "http://www.w3.org/Graphics/SVG/1.1/DTD/svg11.dtd"><svg t="1516848879010" class="icon" style="" viewBox="0 0 1057 1024" version="1.1" xmlns="http://www.w3.org/2000/svg" p-id="2258" xmlns:xlink="http://www.w3.org/1999/xlink" width="206.4453125" height="200"><defs><style type="text/css"></style></defs><path d="M502.782324 1024a502.782324 502.782324 0 1 1 502.782324-502.782324 502.782324 502.782324 0 0 1-502.782324 502.782324z m0-921.767594a418.98527 418.98527 0 1 0 418.98527 418.98527 418.98527 418.98527 0 0 0-418.98527-418.566285z" fill="#A6C5F6" p-id="2259"></path><path d="M269.826514 107.679214m-107.679214 0a107.679214 107.679214 0 1 0 215.358428 0 107.679214 107.679214 0 1 0-215.358428 0Z" fill="#4E8CEE" p-id="2260"></path><path d="M502.363339 521.636661m-269.826514 0a269.826514 269.826514 0 1 0 539.653028 0 269.826514 269.826514 0 1 0-539.653028 0Z" fill="#4E8CEE" p-id="2261"></path><path d="M268.569558 914.644845m-107.679214 0a107.679214 107.679214 0 1 0 215.358429 0 107.679214 107.679214 0 1 0-215.358429 0Z" fill="#4E8CEE" p-id="2262"></path><path d="M949.839607 520.379705m-107.679214 0a107.679214 107.679214 0 1 0 215.358429 0 107.679214 107.679214 0 1 0-215.358429 0Z" fill="#4E8CEE" p-id="2263"></path></svg>