<?xml version="1.0" standalone="no"?><!DOCTYPE svg PUBLIC "-//W3C//DTD SVG 1.1//EN" "http://www.w3.org/Graphics/SVG/1.1/DTD/svg11.dtd"><svg t="1513072807094" class="icon" style="" viewBox="0 0 1024 1024" version="1.1" xmlns="http://www.w3.org/2000/svg" p-id="2244" xmlns:xlink="http://www.w3.org/1999/xlink" width="200" height="200"><defs><style type="text/css"></style></defs><path d="M951.854545 34.909091c-2.327273 0-39.563636 20.945455-111.70909 41.890909-67.490909 20.945455-179.2 44.218182-328.145455 44.218182-148.945455 0-260.654545-23.272727-328.145455-41.890909-72.145455-20.945455-109.381818-41.890909-111.70909-44.218182L13.963636 0v67.490909c2.327273 148.945455 23.272727 286.254545 60.509091 409.6C107.054545 581.818182 153.6 674.909091 209.454545 758.690909c104.727273 148.945455 221.090909 223.418182 281.6 253.672727l20.945455 11.636364 18.618182-9.309091c60.509091-30.254545 179.2-107.054545 281.6-253.672727 58.181818-81.454545 104.727273-176.872727 137.309091-281.6 39.563636-123.345455 60.509091-260.654545 60.509091-409.6V0l-58.181819 34.909091z m-819.2 325.818182c155.927273-118.690909 279.272727 0 279.272728 0-155.927273 144.290909-279.272727 0-279.272728 0zM512 979.781818v-139.636363c155.927273-100.072727 181.527273-207.127273 181.527273-207.127273H512V158.254545C814.545455 160.581818 970.472727 69.818182 970.472727 69.818182 963.490909 695.854545 623.709091 921.6 512 979.781818zM512 979.781818z" p-id="2245"></path></svg>