<?xml version="1.0" standalone="no"?><!DOCTYPE svg PUBLIC "-//W3C//DTD SVG 1.1//EN" "http://www.w3.org/Graphics/SVG/1.1/DTD/svg11.dtd"><svg t="1516674228159" class="icon" style="" viewBox="0 0 1024 1024" version="1.1" xmlns="http://www.w3.org/2000/svg" p-id="4659" xmlns:xlink="http://www.w3.org/1999/xlink" width="200" height="200"><defs><style type="text/css"></style></defs><path d="M900.70016 336.40448a15.36512 15.36512 0 0 1 0 21.72416l-377.84064 254.95552a15.36 15.36 0 0 1-21.72416 0L123.30496 358.12864a15.36 15.36 0 0 1 0-21.72416l377.83552-239.59552a15.36 15.36 0 0 1 21.72416 0.00512l377.83552 239.5904z" fill="#BAD4FF" p-id="4660"></path><path d="M512 641.80736a39.28576 39.28576 0 0 1-25.9072-9.65632L107.8272 376.90368l-1.64864-1.64864c-15.42656-15.42656-15.42656-40.52992-0.00512-55.96672l1.89952-1.89952 378.35264-239.9232c7.1424-6.06208 16.10752-9.36448 25.57952-9.36448s18.44224 3.30752 25.58464 9.37472l378.35776 239.91808 1.89952 1.89952c15.41632 15.44704 15.40608 40.5504-0.0256 55.97184l-1.6384 1.6384-1.93024 1.30048-376.33536 253.94176a39.29088 39.29088 0 0 1-25.91744 9.66144z m-361.06752-294.2464L512 591.20128l361.07264-243.64032-361.07776-228.95616-361.0624 228.95616z" fill="#4E8CEE" p-id="4661"></path><path d="M512 804.36224a24.18688 24.18688 0 0 1-13.62944-4.1984l-416.1792-283.3408a24.2176 24.2176 0 0 1 27.25888-40.03328L512 750.84288l402.54976-274.05824a24.2176 24.2176 0 0 1 27.25888 40.03328l-416.1792 283.3408a24.192 24.192 0 0 1-13.62944 4.20352z" fill="#4E8CEE" p-id="4662"></path><path d="M512 955.89888a24.18688 24.18688 0 0 1-13.62944-4.1984l-416.1792-283.3408a24.2176 24.2176 0 0 1 27.25888-40.0384L512 902.38464l402.54976-274.06336a24.22272 24.22272 0 0 1 27.25888 40.0384l-416.1792 283.3408a24.18688 24.18688 0 0 1-13.62944 4.1984z" fill="#4E8CEE" p-id="4663"></path></svg>