<?xml version="1.0" standalone="no"?><!DOCTYPE svg PUBLIC "-//W3C//DTD SVG 1.1//EN" "http://www.w3.org/Graphics/SVG/1.1/DTD/svg11.dtd"><svg t="1516674005235" class="icon" style="" viewBox="0 0 1024 1024" version="1.1" xmlns="http://www.w3.org/2000/svg" p-id="1594" xmlns:xlink="http://www.w3.org/1999/xlink" width="200" height="200"><defs><style type="text/css"></style></defs><path d="M973.5 198.7c0-80.1-64.9-145-145-145s-145 64.9-145 145c0 57.5 33.5 107.2 82 130.6-1-0.5-2-1-2.9-1.5l-65.6 139c-1.5 0-3-0.1-4.5-0.1-27.4 0-53.1 7.6-74.9 20.8L464.3 348.9c5.3-15.1 8.2-31.3 8.2-48.2 0-80.1-64.9-145-145-145s-145 64.9-145 145c0 57.1 33.1 106.5 81.1 130.2l-61.4 249.6c-2.2-0.1-4.4-0.2-6.6-0.2-80.1 0-145 64.9-145 145s64.9 145 145 145 145-64.9 145-145c0-60.5-37-112.3-89.6-134l60.7-246.5c5.2 0.6 10.5 0.9 15.9 0.9 44.8 0 84.9-20.3 111.5-52.3l140.7 127.2c-20.1 24.9-32.1 56.5-32.1 91 0 80.1 64.9 145 145 145s145-64.9 145-145c0-60.7-37.3-112.7-90.2-134.3l63.6-134.8c5.8 0.7 11.7 1.1 17.6 1.1 79.9 0.1 144.8-64.8 144.8-144.9z m-683 626.6c0 52.4-42.6 95-95 95s-95-42.6-95-95 42.6-95 95-95 95 42.6 95 95z m-54.2-139.2h0.1c0 0.1 0 0.1-0.1 0z m-31.3-5.5h0.4c-0.1 0.1-0.2 0-0.4 0z m3.3 0.3h0.5-0.5z m3.3 0.3h0.4-0.4z m15.7 2.6z m2.8 0.7c0.1 0 0.2 0.1 0.3 0.1 0-0.1-0.2-0.1-0.3-0.1z m3.1 0.8c0.1 0 0.2 0.1 0.4 0.1-0.2-0.1-0.3-0.1-0.4-0.1z m62.6-243.1c0.1 0 0.1 0 0 0 0.1 0 0.1 0 0 0z m-29.6-10.1c0.1 0 0.1 0.1 0.2 0.1 0 0-0.1 0-0.2-0.1z m2.9 1.3c0.1 0 0.1 0.1 0.2 0.1-0.1 0-0.2 0-0.2-0.1z m17.6 6.5z m2.9 0.8c0.1 0 0.2 0 0.3 0.1-0.1-0.1-0.2-0.1-0.3-0.1z m3.1 0.8c0.1 0 0.2 0 0.3 0.1-0.2-0.1-0.3-0.1-0.3-0.1z m34.8-45.8c-52.4 0-95-42.6-95-95s42.6-95 95-95 95 42.6 95 95-42.6 95-95 95z m113.5-4.9l-0.3 0.3c0.1 0 0.2-0.1 0.3-0.3z m9.3-13.1c-0.1 0.1-0.1 0.2-0.2 0.3 0.1-0.1 0.2-0.2 0.2-0.3z m-1.7 2.6c-0.1 0.1-0.2 0.3-0.3 0.4 0.2-0.1 0.3-0.2 0.3-0.4z m-1.7 2.7c-0.1 0.2-0.2 0.3-0.4 0.5 0.1-0.2 0.2-0.4 0.4-0.5z m-1.9 2.6c-0.1 0.2-0.3 0.4-0.4 0.5 0.1-0.1 0.3-0.3 0.4-0.5z m-2 2.6c-0.1 0.2-0.2 0.3-0.4 0.5 0.2-0.1 0.3-0.3 0.4-0.5z m172.6 100.5l-0.9 0.6 0.9-0.6z m-2.7 1.7c-0.3 0.2-0.7 0.4-1 0.7 0.4-0.2 0.7-0.4 1-0.7z m-2.7 1.9c-0.3 0.2-0.7 0.5-1 0.7 0.4-0.3 0.7-0.5 1-0.7z m-2.7 1.9c-0.3 0.2-0.6 0.4-0.9 0.7 0.3-0.3 0.6-0.5 0.9-0.7z m-2.7 2c-0.3 0.2-0.5 0.4-0.8 0.6 0.3-0.2 0.6-0.4 0.8-0.6z m-2.6 2c-0.2 0.2-0.4 0.4-0.7 0.5 0.3-0.1 0.5-0.3 0.7-0.5z m-2.6 2.1c-0.1 0.1-0.3 0.2-0.4 0.4 0.1-0.2 0.3-0.3 0.4-0.4z m-18 17.9z m205.9 93.5c0 52.4-42.6 95-95 95s-95-42.6-95-95 42.6-95 95-95 95 42.6 95 95z m-64.6-141.8h0.2-0.2z m-9.8-1.7h0z m3.2 0.4c0.2 0 0.3 0.1 0.5 0.1-0.2 0-0.3 0-0.5-0.1z m3.3 0.6c0.1 0 0.3 0.1 0.4 0.1-0.2 0-0.3-0.1-0.4-0.1z m13.9-270.5c0-52.4 42.6-95 95-95s95 42.6 95 95-42.6 95-95 95-95-42.6-95-95z m74 143.5c0.2 0 0.3 0 0.5 0.1-0.2-0.1-0.4-0.1-0.5-0.1z m-40.9-12.4l1.8 0.9-1.8-0.9z m3.2 1.5c0.6 0.2 1.1 0.5 1.7 0.7-0.6-0.2-1.1-0.4-1.7-0.7z m3.2 1.4c0.5 0.2 1 0.4 1.6 0.6-0.6-0.2-1.1-0.4-1.6-0.6z m3.1 1.2l1.5 0.6-1.5-0.6z m3.2 1.2c0.4 0.2 0.9 0.3 1.3 0.5-0.4-0.2-0.8-0.3-1.3-0.5z m3.2 1.1c0.4 0.1 0.7 0.2 1.1 0.4-0.3-0.1-0.7-0.2-1.1-0.4z m3.2 1.1c0.1 0 0.1 0 0.2 0.1 0-0.1-0.1-0.1-0.2-0.1z m9 2.4c0.1 0 0.2 0.1 0.4 0.1-0.2 0-0.3-0.1-0.4-0.1z m3 0.7c0.2 0 0.4 0.1 0.6 0.1-0.2 0-0.4-0.1-0.6-0.1z m3.2 0.6c0.2 0 0.5 0.1 0.7 0.1-0.3 0-0.5 0-0.7-0.1z m3.2 0.6c0.2 0 0.4 0.1 0.6 0.1-0.2 0-0.4 0-0.6-0.1z" fill="" p-id="1595"></path></svg>